<svg width="25" height="15" viewBox="0 0 25 15" fill="none" xmlns="http://www.w3.org/2000/svg">
<path d="M19.6218 13.894L23.5408 9.97501C24.1772 9.30815 24.5323 8.42179 24.5323 7.50001C24.5323 6.57823 24.1772 5.69187 23.5408 5.02501L19.6218 1.10601C19.3406 0.824614 18.9591 0.666476 18.5612 0.666382C18.1633 0.666288 17.7817 0.824247 17.5003 1.10551C17.219 1.38677 17.0608 1.7683 17.0607 2.16616C17.0606 2.56401 17.2186 2.94562 17.4998 3.22701L20.2798 6.00801L2.02985 6.03101C1.63202 6.03101 1.25049 6.18905 0.969186 6.47035C0.687881 6.75166 0.529846 7.13319 0.529846 7.53101C0.529846 7.92884 0.687881 8.31037 0.969186 8.59167C1.25049 8.87298 1.63202 9.03101 2.02985 9.03101L20.2608 9.00801L17.4998 11.773C17.2266 12.0559 17.0754 12.4348 17.0788 12.8281C17.0823 13.2214 17.24 13.5976 17.5181 13.8757C17.7962 14.1539 18.1725 14.3116 18.5657 14.315C18.959 14.3184 19.3379 14.1673 19.6208 13.894H19.6218Z" fill="white"/>
</svg>
