<svg width="70" height="31" viewBox="0 0 70 31" fill="none" xmlns="http://www.w3.org/2000/svg">
<path d="M46.1686 12.8008H45.935C45.1641 12.8381 44.4083 13.0356 43.7127 13.3814C43.0172 13.7272 42.3961 14.2143 41.8865 14.8137C41.3658 15.3954 40.9659 16.0812 40.7115 16.8289C40.4571 17.5766 40.3536 18.3703 40.4073 19.161C40.4073 22.7839 42.8982 25.5211 46.2468 25.5211C49.5954 25.5211 52.0863 22.7839 52.0863 19.161C52.0078 15.5381 49.5164 12.8008 46.1686 12.8008ZM49.4386 19.161C49.4386 21.4957 48.115 23.1059 46.1686 23.1059C44.2223 23.1059 42.8987 21.4957 42.8987 19.161C42.8987 16.8263 44.2223 15.2966 46.1686 15.2966C48.1928 15.2966 49.4386 16.8265 49.4386 19.161Z" fill="#FB4D3D"/>
<path d="M38.6165 23.1059H36.1257V14.3306C36.1136 13.9703 35.9752 13.6269 35.7364 13.3644C35.6149 13.2356 35.4696 13.1335 35.309 13.0643C35.1484 12.9952 34.976 12.9603 34.802 12.9618C34.1013 12.9618 33.5563 13.6059 33.5563 14.3306V24.3134C33.5592 24.6191 33.6727 24.9127 33.8744 25.1362C34.0762 25.3597 34.3516 25.497 34.6463 25.5211H38.6165C38.9022 25.4997 39.1743 25.3872 39.3955 25.199C39.5007 25.0962 39.583 24.9709 39.6368 24.8319C39.6905 24.6929 39.7145 24.5434 39.7069 24.3939C39.7066 23.6695 39.2394 23.1059 38.6165 23.1059Z" fill="#FB4D3D"/>
<path d="M68.9805 12.9618H62.9856C62.6863 12.9729 62.4035 13.1063 62.1992 13.3327C61.9949 13.5591 61.8857 13.86 61.8956 14.1695C61.8857 14.479 61.9949 14.7799 62.1992 15.0063C62.4035 15.2327 62.6863 15.366 62.9856 15.3772H64.6984V24.1516C64.6984 24.4737 64.7762 24.8763 65.0098 25.1178C65.2485 25.3549 65.5442 25.5217 65.8663 25.6009H65.9441C66.1005 25.6091 66.2568 25.5848 66.4039 25.5295C66.551 25.4742 66.6859 25.389 66.8006 25.2788C67.0369 25.0473 67.1766 24.7295 67.1899 24.3932V15.2965H68.9027C69.2019 15.2854 69.4847 15.152 69.6891 14.9256C69.8934 14.6992 70.0026 14.3983 69.9927 14.0888C70.0704 13.5247 69.5255 12.9618 68.9805 12.9618Z" fill="#FB4D3D"/>
<path d="M59.7934 15.2966C60.0927 15.2854 60.3755 15.1521 60.5798 14.9257C60.7841 14.6993 60.8933 14.3984 60.8834 14.0889C60.8933 13.7794 60.7841 13.4785 60.5798 13.2522C60.3754 13.0258 60.0926 12.8925 59.7934 12.8813H54.9664C54.6671 12.8925 54.3843 13.0258 54.18 13.2522C53.9757 13.4786 53.8665 13.7795 53.8763 14.089V24.1531C53.8885 24.5133 54.0268 24.8567 54.2657 25.1192C54.4423 25.2989 54.6549 25.4363 54.8885 25.5218H55.4329C55.7267 25.4462 55.987 25.2696 56.1709 25.0208C56.3548 24.7721 56.4515 24.4661 56.4451 24.1531V20.3687H58.8591C59.1584 20.3575 59.4412 20.2242 59.6455 19.9978C59.8498 19.7714 59.959 19.4705 59.9491 19.161C59.9493 18.8674 59.847 18.5836 59.6611 18.3617C59.4751 18.1399 59.218 17.9949 58.9369 17.9533H56.4461V15.2966H59.7934Z" fill="#FB4D3D"/>
<path d="M29.9745 14.2499V28.5803C29.961 28.9139 29.8836 29.2415 29.7468 29.544C29.61 29.8465 29.4165 30.1179 29.1776 30.3426C28.9386 30.5672 28.6589 30.7406 28.3547 30.8526C28.0505 30.9647 27.7278 31.0133 27.4053 30.9955H20.4761V23.7499L22.5782 22.3V15.1356H19.6977V16.9069H16.6608V15.1356H13.3913V16.9069H10.3549V15.1356H7.47425V22.3008L9.57632 23.7507V30.9957H2.56922C2.2469 31.0127 1.92449 30.9637 1.62058 30.8513C1.31667 30.739 1.03726 30.5656 0.79844 30.3411C0.559626 30.1166 0.366128 29.8454 0.229095 29.5433C0.0920618 29.2411 0.0142017 28.9139 0 28.5805L0 14.2499C0.00577991 13.9271 0.07824 13.6092 0.212524 13.3176C0.346808 13.026 0.539812 12.7675 0.778602 12.5594L13.1577 0.724715C13.6754 0.257538 14.3392 0.00012207 15.0263 0.00012207C15.7134 0.00012207 16.3772 0.257538 16.8948 0.724715L29.274 12.5594C29.4962 12.7768 29.6729 13.0389 29.7934 13.3297C29.9139 13.6204 29.9756 13.9336 29.9745 14.2499Z" fill="#FB4D3D"/>
</svg>
