<svg width="253" height="77" viewBox="0 0 253 77" fill="none" xmlns="http://www.w3.org/2000/svg">
<path fill-rule="evenodd" clip-rule="evenodd" d="M7.58105 68.802L8.48462 62.5802C13.3874 63.2333 18.043 64.7113 22.5476 66.1412C27.5314 67.7238 32.2373 69.2165 37.151 69.6394C43.3009 70.1648 48.8688 69.4112 55.7669 67.1167C59.0879 66.0135 62.3936 64.7532 65.8941 63.4197C74.5664 60.1182 83.5319 56.7059 92.8628 55.7219C105.644 54.3779 114.972 57.3674 125.049 62.2703C132.507 65.8983 141.733 67.4098 152.473 66.7567C157.098 66.4761 161.548 65.2745 166.261 64.0037C169.212 63.2061 172.262 62.3834 175.377 61.7993C184.879 60.0157 194.113 59.3458 205.323 59.6242C213.805 59.8335 219.927 62.2662 226.409 64.8432C228.768 65.779 231.205 66.7483 233.799 67.615C243.356 70.8075 252.531 67.6945 262.245 64.3994L264.439 70.3177C254.566 73.6672 243.371 77.4669 231.633 73.5437C228.864 72.6184 226.335 71.6135 223.891 70.6422C217.735 68.1949 212.416 66.0826 205.153 65.9025C194.443 65.6367 185.651 66.2731 176.642 67.9625C173.784 68.4963 170.995 69.25 168.041 70.0476C163.206 71.3518 158.21 72.7021 152.889 73.0245C140.961 73.7489 130.593 72.0134 122.074 67.8683C113.045 63.4741 104.745 60.7903 93.5804 61.9647C85.1334 62.8544 76.5879 66.1077 68.3203 69.2563C64.9074 70.5563 61.3785 71.8982 57.9218 73.0497C50.1946 75.6204 43.6072 76.4976 36.5647 75.8947C30.8918 75.4069 25.5996 73.7279 20.4824 72.1013C16.0631 70.6987 11.8888 69.3735 7.58105 68.802Z" fill="#B88764"/>
<path fill-rule="evenodd" clip-rule="evenodd" d="M19.9966 56.6749L21.3399 50.5263C28.1067 51.8808 35.9083 50.8026 45.1954 47.2374L49.0787 45.7301C59.6522 41.6122 69.6394 37.7204 81.7466 36.7867C90.6421 36.0979 102.089 35.8279 111.726 39.8872L112.675 40.287C119.306 43.0839 125.572 45.7238 132.448 47.4342C149.863 51.7636 165.309 48.5542 181.66 45.1565C193.575 42.6799 203.236 41.5054 214.58 43.3017C218.511 43.9234 221.697 45.3763 224.777 46.7831C226.35 47.4991 227.835 48.1774 229.428 48.7573C239.719 52.5109 252.811 49.8648 263.332 47.7399L263.973 47.6101L265.327 53.7566L264.689 53.8843C253.327 56.1808 239.186 59.0385 227.092 54.6275C225.249 53.9554 223.574 53.1913 221.953 52.4523C219.161 51.1774 216.525 49.9736 213.51 49.4963C203.197 47.8655 194.212 48.9729 183.054 51.2925C165.915 54.8556 149.725 58.2178 130.797 53.5116C123.408 51.6756 116.607 48.8075 110.028 46.0337L109.083 45.6359C100.791 42.1439 90.4015 42.4182 82.276 43.0462C71.1753 43.9046 61.6453 47.6163 51.5531 51.5479L47.6392 53.0657C37.1138 57.1082 28.0717 58.289 19.9966 56.6749Z" fill="#B88764"/>
<path fill-rule="evenodd" clip-rule="evenodd" d="M-7.23449e-07 34.2994L2.99509 28.7119C21.0114 37.5568 40.9924 31.6448 60.317 25.9275C62.4589 25.2953 64.5788 24.6673 66.6769 24.0664C88.3753 17.853 105.737 15.6109 125.222 23.6163C141.337 30.2401 157.284 31.1675 173.976 26.453C186.033 23.0448 197.121 21.7929 207.867 22.624C213.731 23.0741 218.445 25.1969 223.002 27.2485C224.628 27.9771 226.275 28.7203 228.004 29.3965L230.078 30.2213C234.077 31.8249 238.608 33.642 242.561 33.8409C249.282 34.1801 254.972 32.7209 261.56 31.0357C262.737 30.7342 263.929 30.4285 265.141 30.1313L266.773 36.2128C265.583 36.5059 264.415 36.8053 263.257 37.1026C256.427 38.8506 249.975 40.5024 242.218 40.113C237.124 39.8576 232.033 37.8164 227.542 36.014L225.52 35.2101C223.659 34.4815 221.906 33.6944 220.211 32.9303C215.997 31.0357 212.015 29.2436 207.34 28.8836C197.412 28.1173 187.105 29.2918 175.834 32.476C157.614 37.6217 140.21 36.6127 122.634 29.3881C104.972 22.13 88.8478 24.2737 68.5584 30.0831C66.48 30.6777 64.3775 31.3015 62.2554 31.9275C42.6354 37.7327 20.3945 44.3125 -7.23449e-07 34.2994Z" fill="#B88764"/>
<path fill-rule="evenodd" clip-rule="evenodd" d="M11.1418 15.2322L13.6381 9.42277C15.0405 9.97546 17.8649 9.69283 20.1358 9.46464C21.431 9.33485 22.7699 9.20086 24.0016 9.18412C31.9148 9.07525 39.1651 7.75217 47.1439 6.16739C50.2987 5.54144 53.471 4.72079 56.5382 3.92945C61.1282 2.74244 65.8757 1.51565 70.8507 0.843641C77.3965 -0.0419069 83.927 -0.0167846 90.2409 0.00833756C91.5908 0.0146181 92.9407 0.0188051 94.2949 0.0167117C104.501 -0.00840979 114.851 1.94482 124.86 3.83106C138.295 6.36419 150.985 8.75914 163.518 6.87709C167.01 6.35372 170.458 5.61262 173.794 4.89455C180.051 3.55053 186.523 2.16045 193.655 2.09346C206.537 1.97204 216.506 3.44795 225.977 6.87919C228.81 7.905 231.512 9.17575 234.124 10.4046C238.664 12.5421 242.952 14.5602 247.66 15.2532C252.578 15.9754 256.731 14.6691 261.542 13.1576C263.528 12.5316 265.585 11.8847 267.781 11.3635L269.359 17.4597C267.403 17.9245 265.464 18.5337 263.589 19.124C258.45 20.7402 253.134 22.4129 246.663 21.4583C240.959 20.6209 236.013 18.2929 231.228 16.0424C228.64 14.824 226.196 13.6726 223.654 12.7535C214.863 9.56933 205.911 8.2588 193.721 8.37394C187.282 8.43465 181.43 9.69075 175.232 11.0243C171.795 11.7633 168.24 12.5253 164.536 13.0822C150.855 15.1338 136.994 12.5211 123.591 9.99221C113.895 8.16459 103.869 6.27416 94.3124 6.29719C92.9428 6.29929 91.5777 6.2951 90.2147 6.28882C83.8526 6.2637 77.845 6.24067 71.7695 7.06341C67.1971 7.68099 62.85 8.8052 58.2491 9.99221C55.0877 10.8087 51.8214 11.6523 48.4785 12.3181C40.469 13.9091 32.5777 15.3474 24.0957 15.4646C23.1615 15.4772 22.0239 15.5923 20.8184 15.7116C17.6593 16.0298 14.0778 16.3878 11.1418 15.2322Z" fill="#B88764"/>
</svg>
